<svg height="0" width="0">
    <defs>
        <clipPath id="svgPath" clipPathUnits="objectBoundingBox" >
            <!-- <path fill-rule="evenodd" clip-rule="evenodd" d="M1479 200.787C1518.16 193.935 1553.73 185.408 1585.89 175.71C1629.69 162.503 1667.45 147.026 1699.38 130.5L1652.16 217.939L1682.18 244.343L1704.44 219.034L1716.3 225.439L1821.25 31.1103L1769.83 0.301575C1749.54 30.9733 1688.1 82.2239 1568.57 118.264C1450.07 153.995 1276.72 173.984 1036.71 144.528C658.218 98.0764 317.334 135.779 110.038 178H39V193.829C9.105 201.125 -16.4207 208.26 -37.0779 214.818L-18.9222 272.005C-2.7919 266.884 16.6074 261.359 39 255.657V687H1479V200.787Z" fill="#288EDE"/> -->
        </clipPath>
    </defs>
</svg>